<svg width="18" height="19" viewBox="0 0 18 19" fill="none" xmlns="http://www.w3.org/2000/svg">
<path d="M4.5 7.6084V6.1084C4.5 3.6259 5.25 1.6084 9 1.6084C12.75 1.6084 13.5 3.6259 13.5 6.1084V7.6084" stroke="#9CA3AF" stroke-width="1.5" stroke-linecap="round" stroke-linejoin="round"/>
<path d="M9 13.9834C10.0355 13.9834 10.875 13.1439 10.875 12.1084C10.875 11.0729 10.0355 10.2334 9 10.2334C7.96447 10.2334 7.125 11.0729 7.125 12.1084C7.125 13.1439 7.96447 13.9834 9 13.9834Z" stroke="#9CA3AF" stroke-width="1.5" stroke-linecap="round" stroke-linejoin="round"/>
<path d="M12.75 16.6084H5.25C2.25 16.6084 1.5 15.8584 1.5 12.8584V11.3584C1.5 8.3584 2.25 7.6084 5.25 7.6084H12.75C15.75 7.6084 16.5 8.3584 16.5 11.3584V12.8584C16.5 15.8584 15.75 16.6084 12.75 16.6084Z" stroke="#9CA3AF" stroke-width="1.5" stroke-linecap="round" stroke-linejoin="round"/>
</svg>
